<svg width="1920" height="454" viewBox="0 0 1920 454" xmlns="http://www.w3.org/2000/svg"><title>banner-wave-2</title><defs><linearGradient x1="97.741%" y1="50%" x2="4.315%" y2="72.104%" id="a"><stop stop-color="#EEE" stop-opacity=".4" offset="0%"/><stop stop-color="#FFF" offset="100%"/></linearGradient></defs><path d="M-57.364 345.189s116.796 8 154.472 46-93.114 117.5 3.768 185c96.881 67.5 327.244-151 369.765-90 42.52 61-71.047 199-18.838 206.5 125.408 16.5 158.778-185.5 306.253-211 147.476-25.5 160.393 119 337.472 136.5C1272.606 635.689 1267.704 435.712 1476 565c131.637 81.706 57-173.811 172-173.811 40.966 0 58.91 186.64 101 185 77-3 58-78.189 127-80.189 17.869-.518 56.478 48.477 98.46 90.477 41.982 42 97.958-47 97.958-47l-64.588 314.712H-60.087l2.723-509z" transform="translate(0 -352)" fill="url(#a)" fill-rule="evenodd" opacity=".04"/></svg>